<svg width="200" height="200" viewBox="0 0 200 200" fill="none" xmlns="http://www.w3.org/2000/svg">
<path d="M99.9998 183.333C146.024 183.333 183.333 146.024 183.333 100C183.333 53.9763 146.024 16.6667 99.9998 16.6667C53.9761 16.6667 16.6665 53.9763 16.6665 100C16.6665 146.024 53.9761 183.333 99.9998 183.333Z" stroke="#973333" stroke-width="20" stroke-linecap="round" stroke-linejoin="round"/>
<path d="M75.75 75C77.7092 69.4306 81.5763 64.7342 86.6663 61.7428C91.7563 58.7513 97.7408 57.6578 103.56 58.6559C109.379 59.654 114.657 62.6794 118.459 67.1961C122.261 71.7128 124.342 77.4294 124.333 83.3333C124.333 100 99.3333 108.333 99.3333 108.333" stroke="#D83D3D" stroke-width="20" stroke-linecap="round" stroke-linejoin="round"/>
<path d="M100 141.667H100.083" stroke="#D83D3D" stroke-width="20" stroke-linecap="round" stroke-linejoin="round"/>
</svg>
